<mxfile host="Electron" modified="2024-05-28T06:58:34.297Z" agent="Mozilla/5.0 (Windows NT 10.0; Win64; x64) AppleWebKit/537.36 (KHTML, like Gecko) draw.io/24.2.5 Chrome/120.0.6099.109 Electron/28.1.0 Safari/537.36" etag="dN2ho9KML5v_e5f-834h" version="24.2.5" type="device">
  <diagram name="Page-1" id="jOcHRtPfo5bOFZ-ORxIO">
    <mxGraphModel dx="1964" dy="727" grid="1" gridSize="10" guides="1" tooltips="1" connect="1" arrows="1" fold="1" page="1" pageScale="1" pageWidth="850" pageHeight="1100" math="0" shadow="0">
      <root>
        <mxCell id="0" />
        <mxCell id="1" parent="0" />
        <mxCell id="AP3mNxp9teoSaf6UbwaE-1" value="Biskay school time table" style="shape=table;startSize=30;container=1;collapsible=0;childLayout=tableLayout;strokeColor=default;fontSize=16;" vertex="1" parent="1">
          <mxGeometry x="-50" y="100" width="744" height="422" as="geometry" />
        </mxCell>
        <mxCell id="AP3mNxp9teoSaf6UbwaE-37" style="shape=tableRow;horizontal=0;startSize=0;swimlaneHead=0;swimlaneBody=0;strokeColor=inherit;top=0;left=0;bottom=0;right=0;collapsible=0;dropTarget=0;fillColor=none;points=[[0,0.5],[1,0.5]];portConstraint=eastwest;fontSize=16;" vertex="1" parent="AP3mNxp9teoSaf6UbwaE-1">
          <mxGeometry y="30" width="744" height="79" as="geometry" />
        </mxCell>
        <mxCell id="AP3mNxp9teoSaf6UbwaE-38" value="Time" style="shape=partialRectangle;html=1;whiteSpace=wrap;connectable=0;strokeColor=inherit;overflow=hidden;fillColor=none;top=0;left=0;bottom=0;right=0;pointerEvents=1;fontSize=16;" vertex="1" parent="AP3mNxp9teoSaf6UbwaE-37">
          <mxGeometry width="124" height="79" as="geometry">
            <mxRectangle width="124" height="79" as="alternateBounds" />
          </mxGeometry>
        </mxCell>
        <mxCell id="AP3mNxp9teoSaf6UbwaE-39" value="Monday" style="shape=partialRectangle;html=1;whiteSpace=wrap;connectable=0;strokeColor=inherit;overflow=hidden;fillColor=none;top=0;left=0;bottom=0;right=0;pointerEvents=1;fontSize=16;" vertex="1" parent="AP3mNxp9teoSaf6UbwaE-37">
          <mxGeometry x="124" width="124" height="79" as="geometry">
            <mxRectangle width="124" height="79" as="alternateBounds" />
          </mxGeometry>
        </mxCell>
        <mxCell id="AP3mNxp9teoSaf6UbwaE-40" value="Tuesday" style="shape=partialRectangle;html=1;whiteSpace=wrap;connectable=0;strokeColor=inherit;overflow=hidden;fillColor=none;top=0;left=0;bottom=0;right=0;pointerEvents=1;fontSize=16;" vertex="1" parent="AP3mNxp9teoSaf6UbwaE-37">
          <mxGeometry x="248" width="124" height="79" as="geometry">
            <mxRectangle width="124" height="79" as="alternateBounds" />
          </mxGeometry>
        </mxCell>
        <mxCell id="AP3mNxp9teoSaf6UbwaE-41" value="Wednesday" style="shape=partialRectangle;html=1;whiteSpace=wrap;connectable=0;strokeColor=inherit;overflow=hidden;fillColor=none;top=0;left=0;bottom=0;right=0;pointerEvents=1;fontSize=16;" vertex="1" parent="AP3mNxp9teoSaf6UbwaE-37">
          <mxGeometry x="372" width="124" height="79" as="geometry">
            <mxRectangle width="124" height="79" as="alternateBounds" />
          </mxGeometry>
        </mxCell>
        <mxCell id="AP3mNxp9teoSaf6UbwaE-42" value="Thursday" style="shape=partialRectangle;html=1;whiteSpace=wrap;connectable=0;strokeColor=inherit;overflow=hidden;fillColor=none;top=0;left=0;bottom=0;right=0;pointerEvents=1;fontSize=16;" vertex="1" parent="AP3mNxp9teoSaf6UbwaE-37">
          <mxGeometry x="496" width="124" height="79" as="geometry">
            <mxRectangle width="124" height="79" as="alternateBounds" />
          </mxGeometry>
        </mxCell>
        <mxCell id="AP3mNxp9teoSaf6UbwaE-45" value="Friday" style="shape=partialRectangle;html=1;whiteSpace=wrap;connectable=0;strokeColor=inherit;overflow=hidden;fillColor=none;top=0;left=0;bottom=0;right=0;pointerEvents=1;fontSize=16;" vertex="1" parent="AP3mNxp9teoSaf6UbwaE-37">
          <mxGeometry x="620" width="124" height="79" as="geometry">
            <mxRectangle width="124" height="79" as="alternateBounds" />
          </mxGeometry>
        </mxCell>
        <mxCell id="AP3mNxp9teoSaf6UbwaE-30" style="shape=tableRow;horizontal=0;startSize=0;swimlaneHead=0;swimlaneBody=0;strokeColor=inherit;top=0;left=0;bottom=0;right=0;collapsible=0;dropTarget=0;fillColor=none;points=[[0,0.5],[1,0.5]];portConstraint=eastwest;fontSize=16;" vertex="1" parent="AP3mNxp9teoSaf6UbwaE-1">
          <mxGeometry y="109" width="744" height="78" as="geometry" />
        </mxCell>
        <mxCell id="AP3mNxp9teoSaf6UbwaE-31" value="8.00-9.00" style="shape=partialRectangle;html=1;whiteSpace=wrap;connectable=0;strokeColor=inherit;overflow=hidden;fillColor=none;top=0;left=0;bottom=0;right=0;pointerEvents=1;fontSize=16;" vertex="1" parent="AP3mNxp9teoSaf6UbwaE-30">
          <mxGeometry width="124" height="78" as="geometry">
            <mxRectangle width="124" height="78" as="alternateBounds" />
          </mxGeometry>
        </mxCell>
        <mxCell id="AP3mNxp9teoSaf6UbwaE-32" value="Math(Room A, Mrs. Mama)" style="shape=partialRectangle;html=1;whiteSpace=wrap;connectable=0;strokeColor=inherit;overflow=hidden;fillColor=none;top=0;left=0;bottom=0;right=0;pointerEvents=1;fontSize=16;" vertex="1" parent="AP3mNxp9teoSaf6UbwaE-30">
          <mxGeometry x="124" width="124" height="78" as="geometry">
            <mxRectangle width="124" height="78" as="alternateBounds" />
          </mxGeometry>
        </mxCell>
        <mxCell id="AP3mNxp9teoSaf6UbwaE-33" value="English (Room B, Mummy Ada)" style="shape=partialRectangle;html=1;whiteSpace=wrap;connectable=0;strokeColor=inherit;overflow=hidden;fillColor=none;top=0;left=0;bottom=0;right=0;pointerEvents=1;fontSize=16;" vertex="1" parent="AP3mNxp9teoSaf6UbwaE-30">
          <mxGeometry x="248" width="124" height="78" as="geometry">
            <mxRectangle width="124" height="78" as="alternateBounds" />
          </mxGeometry>
        </mxCell>
        <mxCell id="AP3mNxp9teoSaf6UbwaE-34" value="Science (Room C, Mas. Emeka)" style="shape=partialRectangle;html=1;whiteSpace=wrap;connectable=0;strokeColor=inherit;overflow=hidden;fillColor=none;top=0;left=0;bottom=0;right=0;pointerEvents=1;fontSize=16;" vertex="1" parent="AP3mNxp9teoSaf6UbwaE-30">
          <mxGeometry x="372" width="124" height="78" as="geometry">
            <mxRectangle width="124" height="78" as="alternateBounds" />
          </mxGeometry>
        </mxCell>
        <mxCell id="AP3mNxp9teoSaf6UbwaE-35" value="Music (Room D, Mr Dollar)" style="shape=partialRectangle;html=1;whiteSpace=wrap;connectable=0;strokeColor=inherit;overflow=hidden;fillColor=none;top=0;left=0;bottom=0;right=0;pointerEvents=1;fontSize=16;" vertex="1" parent="AP3mNxp9teoSaf6UbwaE-30">
          <mxGeometry x="496" width="124" height="78" as="geometry">
            <mxRectangle width="124" height="78" as="alternateBounds" />
          </mxGeometry>
        </mxCell>
        <mxCell id="AP3mNxp9teoSaf6UbwaE-46" value="CRK ( Room A, Mr. Abayomi)" style="shape=partialRectangle;html=1;whiteSpace=wrap;connectable=0;strokeColor=inherit;overflow=hidden;fillColor=none;top=0;left=0;bottom=0;right=0;pointerEvents=1;fontSize=16;" vertex="1" parent="AP3mNxp9teoSaf6UbwaE-30">
          <mxGeometry x="620" width="124" height="78" as="geometry">
            <mxRectangle width="124" height="78" as="alternateBounds" />
          </mxGeometry>
        </mxCell>
        <mxCell id="AP3mNxp9teoSaf6UbwaE-23" style="shape=tableRow;horizontal=0;startSize=0;swimlaneHead=0;swimlaneBody=0;strokeColor=inherit;top=0;left=0;bottom=0;right=0;collapsible=0;dropTarget=0;fillColor=none;points=[[0,0.5],[1,0.5]];portConstraint=eastwest;fontSize=16;" vertex="1" parent="AP3mNxp9teoSaf6UbwaE-1">
          <mxGeometry y="187" width="744" height="79" as="geometry" />
        </mxCell>
        <mxCell id="AP3mNxp9teoSaf6UbwaE-24" value="9.00-10.00" style="shape=partialRectangle;html=1;whiteSpace=wrap;connectable=0;strokeColor=inherit;overflow=hidden;fillColor=none;top=0;left=0;bottom=0;right=0;pointerEvents=1;fontSize=16;" vertex="1" parent="AP3mNxp9teoSaf6UbwaE-23">
          <mxGeometry width="124" height="79" as="geometry">
            <mxRectangle width="124" height="79" as="alternateBounds" />
          </mxGeometry>
        </mxCell>
        <mxCell id="AP3mNxp9teoSaf6UbwaE-25" value="English (Room A, Mummy Ada)" style="shape=partialRectangle;html=1;whiteSpace=wrap;connectable=0;strokeColor=inherit;overflow=hidden;fillColor=none;top=0;left=0;bottom=0;right=0;pointerEvents=1;fontSize=16;" vertex="1" parent="AP3mNxp9teoSaf6UbwaE-23">
          <mxGeometry x="124" width="124" height="79" as="geometry">
            <mxRectangle width="124" height="79" as="alternateBounds" />
          </mxGeometry>
        </mxCell>
        <mxCell id="AP3mNxp9teoSaf6UbwaE-26" value="Science (Room B, Mas. Emeka)" style="shape=partialRectangle;html=1;whiteSpace=wrap;connectable=0;strokeColor=inherit;overflow=hidden;fillColor=none;top=0;left=0;bottom=0;right=0;pointerEvents=1;fontSize=16;" vertex="1" parent="AP3mNxp9teoSaf6UbwaE-23">
          <mxGeometry x="248" width="124" height="79" as="geometry">
            <mxRectangle width="124" height="79" as="alternateBounds" />
          </mxGeometry>
        </mxCell>
        <mxCell id="AP3mNxp9teoSaf6UbwaE-27" value="Music ( Room C, Mr Dollar)" style="shape=partialRectangle;html=1;whiteSpace=wrap;connectable=0;strokeColor=inherit;overflow=hidden;fillColor=none;top=0;left=0;bottom=0;right=0;pointerEvents=1;fontSize=16;" vertex="1" parent="AP3mNxp9teoSaf6UbwaE-23">
          <mxGeometry x="372" width="124" height="79" as="geometry">
            <mxRectangle width="124" height="79" as="alternateBounds" />
          </mxGeometry>
        </mxCell>
        <mxCell id="AP3mNxp9teoSaf6UbwaE-28" value="CRK ( Room D, Mr Abayomi)" style="shape=partialRectangle;html=1;whiteSpace=wrap;connectable=0;strokeColor=inherit;overflow=hidden;fillColor=none;top=0;left=0;bottom=0;right=0;pointerEvents=1;fontSize=16;" vertex="1" parent="AP3mNxp9teoSaf6UbwaE-23">
          <mxGeometry x="496" width="124" height="79" as="geometry">
            <mxRectangle width="124" height="79" as="alternateBounds" />
          </mxGeometry>
        </mxCell>
        <mxCell id="AP3mNxp9teoSaf6UbwaE-47" value="Maths (Room D, Mrs. Mama)" style="shape=partialRectangle;html=1;whiteSpace=wrap;connectable=0;strokeColor=inherit;overflow=hidden;fillColor=none;top=0;left=0;bottom=0;right=0;pointerEvents=1;fontSize=16;" vertex="1" parent="AP3mNxp9teoSaf6UbwaE-23">
          <mxGeometry x="620" width="124" height="79" as="geometry">
            <mxRectangle width="124" height="79" as="alternateBounds" />
          </mxGeometry>
        </mxCell>
        <mxCell id="AP3mNxp9teoSaf6UbwaE-2" value="" style="shape=tableRow;horizontal=0;startSize=0;swimlaneHead=0;swimlaneBody=0;strokeColor=inherit;top=0;left=0;bottom=0;right=0;collapsible=0;dropTarget=0;fillColor=none;points=[[0,0.5],[1,0.5]];portConstraint=eastwest;fontSize=16;" vertex="1" parent="AP3mNxp9teoSaf6UbwaE-1">
          <mxGeometry y="266" width="744" height="79" as="geometry" />
        </mxCell>
        <mxCell id="AP3mNxp9teoSaf6UbwaE-20" value="10.00-11.00" style="shape=partialRectangle;html=1;whiteSpace=wrap;connectable=0;strokeColor=inherit;overflow=hidden;fillColor=none;top=0;left=0;bottom=0;right=0;pointerEvents=1;fontSize=16;" vertex="1" parent="AP3mNxp9teoSaf6UbwaE-2">
          <mxGeometry width="124" height="79" as="geometry">
            <mxRectangle width="124" height="79" as="alternateBounds" />
          </mxGeometry>
        </mxCell>
        <mxCell id="AP3mNxp9teoSaf6UbwaE-17" value="Science (Room A, Mas Emeka)" style="shape=partialRectangle;html=1;whiteSpace=wrap;connectable=0;strokeColor=inherit;overflow=hidden;fillColor=none;top=0;left=0;bottom=0;right=0;pointerEvents=1;fontSize=16;" vertex="1" parent="AP3mNxp9teoSaf6UbwaE-2">
          <mxGeometry x="124" width="124" height="79" as="geometry">
            <mxRectangle width="124" height="79" as="alternateBounds" />
          </mxGeometry>
        </mxCell>
        <mxCell id="AP3mNxp9teoSaf6UbwaE-3" value="Music ( Room B, Mr Dollar)" style="shape=partialRectangle;html=1;whiteSpace=wrap;connectable=0;strokeColor=inherit;overflow=hidden;fillColor=none;top=0;left=0;bottom=0;right=0;pointerEvents=1;fontSize=16;" vertex="1" parent="AP3mNxp9teoSaf6UbwaE-2">
          <mxGeometry x="248" width="124" height="79" as="geometry">
            <mxRectangle width="124" height="79" as="alternateBounds" />
          </mxGeometry>
        </mxCell>
        <mxCell id="AP3mNxp9teoSaf6UbwaE-4" value="CRK ( Room C, Mr Abayomi)" style="shape=partialRectangle;html=1;whiteSpace=wrap;connectable=0;strokeColor=inherit;overflow=hidden;fillColor=none;top=0;left=0;bottom=0;right=0;pointerEvents=1;fontSize=16;" vertex="1" parent="AP3mNxp9teoSaf6UbwaE-2">
          <mxGeometry x="372" width="124" height="79" as="geometry">
            <mxRectangle width="124" height="79" as="alternateBounds" />
          </mxGeometry>
        </mxCell>
        <mxCell id="AP3mNxp9teoSaf6UbwaE-5" value="Maths ( Room D, Mrs Mama)" style="shape=partialRectangle;html=1;whiteSpace=wrap;connectable=0;strokeColor=inherit;overflow=hidden;fillColor=none;top=0;left=0;bottom=0;right=0;pointerEvents=1;fontSize=16;" vertex="1" parent="AP3mNxp9teoSaf6UbwaE-2">
          <mxGeometry x="496" width="124" height="79" as="geometry">
            <mxRectangle width="124" height="79" as="alternateBounds" />
          </mxGeometry>
        </mxCell>
        <mxCell id="AP3mNxp9teoSaf6UbwaE-48" value="English (Room A, Mummy Ada)" style="shape=partialRectangle;html=1;whiteSpace=wrap;connectable=0;strokeColor=inherit;overflow=hidden;fillColor=none;top=0;left=0;bottom=0;right=0;pointerEvents=1;fontSize=16;" vertex="1" parent="AP3mNxp9teoSaf6UbwaE-2">
          <mxGeometry x="620" width="124" height="79" as="geometry">
            <mxRectangle width="124" height="79" as="alternateBounds" />
          </mxGeometry>
        </mxCell>
        <mxCell id="AP3mNxp9teoSaf6UbwaE-6" value="" style="shape=tableRow;horizontal=0;startSize=0;swimlaneHead=0;swimlaneBody=0;strokeColor=inherit;top=0;left=0;bottom=0;right=0;collapsible=0;dropTarget=0;fillColor=none;points=[[0,0.5],[1,0.5]];portConstraint=eastwest;fontSize=16;" vertex="1" parent="AP3mNxp9teoSaf6UbwaE-1">
          <mxGeometry y="345" width="744" height="77" as="geometry" />
        </mxCell>
        <mxCell id="AP3mNxp9teoSaf6UbwaE-21" value="11.00-12.00" style="shape=partialRectangle;html=1;whiteSpace=wrap;connectable=0;strokeColor=inherit;overflow=hidden;fillColor=none;top=0;left=0;bottom=0;right=0;pointerEvents=1;fontSize=16;" vertex="1" parent="AP3mNxp9teoSaf6UbwaE-6">
          <mxGeometry width="124" height="77" as="geometry">
            <mxRectangle width="124" height="77" as="alternateBounds" />
          </mxGeometry>
        </mxCell>
        <mxCell id="AP3mNxp9teoSaf6UbwaE-18" value="Music ( Room A, Mr Dollar)" style="shape=partialRectangle;html=1;whiteSpace=wrap;connectable=0;strokeColor=inherit;overflow=hidden;fillColor=none;top=0;left=0;bottom=0;right=0;pointerEvents=1;fontSize=16;" vertex="1" parent="AP3mNxp9teoSaf6UbwaE-6">
          <mxGeometry x="124" width="124" height="77" as="geometry">
            <mxRectangle width="124" height="77" as="alternateBounds" />
          </mxGeometry>
        </mxCell>
        <mxCell id="AP3mNxp9teoSaf6UbwaE-7" value="CRK ( Rom B, Mr Abayomi)" style="shape=partialRectangle;html=1;whiteSpace=wrap;connectable=0;strokeColor=inherit;overflow=hidden;fillColor=none;top=0;left=0;bottom=0;right=0;pointerEvents=1;fontSize=16;" vertex="1" parent="AP3mNxp9teoSaf6UbwaE-6">
          <mxGeometry x="248" width="124" height="77" as="geometry">
            <mxRectangle width="124" height="77" as="alternateBounds" />
          </mxGeometry>
        </mxCell>
        <mxCell id="AP3mNxp9teoSaf6UbwaE-8" value="Maths ( Room C, Mrs. Mama)" style="shape=partialRectangle;html=1;whiteSpace=wrap;connectable=0;strokeColor=inherit;overflow=hidden;fillColor=none;top=0;left=0;bottom=0;right=0;pointerEvents=1;fontSize=16;" vertex="1" parent="AP3mNxp9teoSaf6UbwaE-6">
          <mxGeometry x="372" width="124" height="77" as="geometry">
            <mxRectangle width="124" height="77" as="alternateBounds" />
          </mxGeometry>
        </mxCell>
        <mxCell id="AP3mNxp9teoSaf6UbwaE-9" value="English ( Room D, Mrs Ada)" style="shape=partialRectangle;html=1;whiteSpace=wrap;connectable=0;strokeColor=inherit;overflow=hidden;fillColor=none;top=0;left=0;bottom=0;right=0;pointerEvents=1;fontSize=16;" vertex="1" parent="AP3mNxp9teoSaf6UbwaE-6">
          <mxGeometry x="496" width="124" height="77" as="geometry">
            <mxRectangle width="124" height="77" as="alternateBounds" />
          </mxGeometry>
        </mxCell>
        <mxCell id="AP3mNxp9teoSaf6UbwaE-49" value="Science ( Room A, Mas Emeka)" style="shape=partialRectangle;html=1;whiteSpace=wrap;connectable=0;strokeColor=inherit;overflow=hidden;fillColor=none;top=0;left=0;bottom=0;right=0;pointerEvents=1;fontSize=16;" vertex="1" parent="AP3mNxp9teoSaf6UbwaE-6">
          <mxGeometry x="620" width="124" height="77" as="geometry">
            <mxRectangle width="124" height="77" as="alternateBounds" />
          </mxGeometry>
        </mxCell>
      </root>
    </mxGraphModel>
  </diagram>
</mxfile>
